<svg width="150" height="30" viewBox="0 0 150 30" fill="none" xmlns="http://www.w3.org/2000/svg">
<path d="M23.5271 9.03531C22.2919 7.43055 20.5594 6.37321 18.6336 6.01196C19.0741 6.46908 19.4631 6.9776 19.7896 7.53197C21.7598 8.32115 23.127 9.84533 23.7744 12.0072C24.5456 14.5818 23.9412 16.9216 21.9765 18.9598C20.5899 20.3993 13.1038 28.2508 13.1038 28.2508V20.8411C13.1038 20.4854 12.7578 20.2075 12.3841 20.3284C12.159 20.4006 12.0214 20.6299 12.0214 20.8661V24.5675C12.0214 24.9773 12.02 25.3872 12.0173 25.7971C12.0117 26.9489 12.0048 28.1396 12.0492 29.3053C12.0562 29.4943 12.0715 30.0153 12.4897 30.007C12.6175 29.9973 12.8426 29.9042 12.9176 29.8291C13.6179 29.1178 20.419 22.2305 23.045 19.4336C25.746 16.5575 25.9475 12.1851 23.5271 9.03948V9.03531Z" fill="white"/>
<path d="M3.21108 7.55351C2.62892 7.98839 2.11901 8.48719 1.69524 9.036C-0.657029 12.0941 -0.554214 16.2581 1.95923 19.1773C2.08983 19.3509 2.24405 19.5218 2.43162 19.6983C3.01657 20.318 3.60429 20.9363 4.1934 21.5476C4.36707 21.7268 4.54353 21.9019 4.71998 22.0728C5.22573 22.5577 5.48971 23.0301 5.23962 23.8776C5.05066 24.5209 5.15904 25.2281 5.53557 25.8158C5.92043 26.4147 6.52343 26.8134 7.19174 26.9107C7.33068 26.9315 7.47101 26.9413 7.60856 26.9413C8.9938 26.9413 10.0734 25.9201 10.1192 24.564C10.1428 23.8484 9.8858 23.1565 9.41063 22.6661C8.9938 22.234 8.4436 21.9964 7.86282 21.9964C7.75167 21.9964 7.63635 22.0047 7.52381 22.0228C7.36403 22.0478 7.2098 22.0589 7.06392 22.0589C6.14691 22.0589 5.59809 21.5559 5.15348 21.0849L5.02704 20.9529L4.86726 20.7667C4.60605 20.4889 4.34901 20.1943 4.09892 19.9081C3.81964 19.5885 3.53204 19.2579 3.24443 18.9605C1.28119 16.9223 0.676802 14.5825 1.44653 12.0079C2.01202 10.1211 3.12772 8.66086 4.77417 7.66327C5.03955 7.51738 5.31604 7.39789 5.59948 7.29925C5.88014 6.8463 6.20248 6.42948 6.56234 6.05017C5.33827 6.28498 4.18367 6.79767 3.20831 7.5549L3.21108 7.55351ZM7.5905 23.0329C7.61273 23.0329 7.63496 23.0315 7.6558 23.0315C8.01427 23.0315 8.37829 23.201 8.65062 23.4955C8.92989 23.797 9.07439 24.1805 9.0466 24.5473C8.98963 25.2962 8.31299 25.8839 7.50575 25.8839H7.43905L7.41821 25.8784C6.63181 25.7408 6.17469 25.2003 6.19414 24.4306C6.21498 23.6053 6.73601 23.0829 7.58911 23.0343L7.5905 23.0329Z" fill="white"/>
<path d="M18.639 8.0026C18.4223 7.65664 18.1736 7.33291 17.9027 7.03279C17.5081 6.59652 17.0607 6.21166 16.573 5.88931C15.4837 5.16682 14.1999 4.74861 12.8688 4.73194C11.2752 4.7111 9.81074 5.13209 8.61724 5.91988C8.15596 6.22416 7.73496 6.58263 7.3626 6.9925C7.19587 7.1759 7.03748 7.36903 6.89159 7.57188C6.24274 8.61116 5.86621 9.83939 5.86621 11.1552C5.86621 14.4286 8.18791 17.1602 11.2752 17.7923C11.2766 17.7896 11.2793 17.7868 11.2807 17.7826C8.6089 16.8392 6.97913 15.0816 6.84852 12.0027C7.69328 12.0027 8.42828 11.9179 9.13827 12.018C11.8824 12.4028 14.1485 11.7929 15.6157 9.21416C15.7491 8.98074 16.2659 8.96546 16.6049 8.84875C16.6452 9.20443 16.7925 9.59208 16.7008 9.91025C16.5063 10.5911 16.1867 11.2371 15.895 11.9555C16.8189 11.9971 17.5942 12.0305 18.3598 12.0652C18.4251 14.6426 17.0259 16.4405 13.9692 17.7854C13.9706 17.7896 13.9734 17.7923 13.9762 17.7965C17.0801 17.1768 19.4185 14.4383 19.4185 11.1524C19.4185 10.0145 19.1365 8.94184 18.6404 8.00121L18.639 8.0026Z" fill="white"/>
<path d="M12.8879 3.5102C14.3968 3.52965 15.8362 3.97565 17.07 4.74538C17.4313 3.61163 17.7661 2.56263 18.1413 1.3858C14.6205 -0.357904 11.1762 -0.469056 7.69986 1.12598C7.49006 1.22185 7.25386 1.66924 7.31361 1.86931C7.58732 2.79466 7.9569 3.69221 8.31815 4.66341C9.59779 3.91869 11.1136 3.50881 12.7601 3.50881H12.8879V3.5102ZM11.6263 2.07356V1.38441H12.2655V0.745284H12.9546V1.38441H13.5937V2.07356H12.9546V2.71268H12.2655V2.07356H11.6263Z" fill="white"/>
<path d="M17.0577 4.78502C17.0619 4.77252 17.0661 4.76002 17.0702 4.74751C15.8365 3.97778 14.397 3.53178 12.8881 3.51233H12.7603C11.1138 3.51233 9.59662 3.92081 8.31836 4.66554C8.32253 4.67804 8.32809 4.69054 8.33225 4.70305C11.2834 3.08995 14.1386 3.12885 17.0591 4.78641L17.0577 4.78502Z" fill="white"/>
<path d="M30.6816 16.085V5.24792H32.7662L36.4422 13.4705L40.0427 5.24792H42.0518V16.085H40.1952V8.5357L37.2541 16.085H35.5409L32.5397 8.5357V16.085H30.6816Z" fill="white"/>
<path d="M42.8765 8.12732H45.0057L47.0147 13.8571L48.9775 8.12732H51.0697L47.765 16.3206C47.1795 17.7657 46.2413 18.7933 44.9533 19.405L43.9827 18.0338C44.8716 17.644 45.5187 17.0108 45.9224 16.1311L42.8765 8.12732Z" fill="white"/>
<path d="M52.2061 16.085V5.24792H54.2151L59.9371 13.1454V5.24792H61.8691V16.085H59.8601L54.138 8.02112V16.085H52.2061Z" fill="white"/>
<path d="M70.1825 8.12732V16.0849H68.6141L68.3722 15.0696C67.4571 15.7474 66.488 16.0849 65.4619 16.0849C63.835 16.0849 63.0215 15.1219 63.0215 13.1976V8.12732H65.0305V13.1453C65.0305 14.025 65.4141 14.4641 66.1829 14.4641C66.8346 14.4641 67.4987 14.2037 68.1766 13.683V8.12732H70.1856H70.1825Z" fill="white"/>
<path d="M71.4582 16.0849V8.12732H73.0111L73.2607 9.14262C73.9587 8.46627 74.6951 8.12732 75.4731 8.12732V9.74964C74.7259 9.74964 74.0557 10.0609 73.4641 10.6817V16.0849H71.4551H71.4582Z" fill="white"/>
<path d="M76.3019 15.7034V14.0364C77.1863 14.3908 78.2062 14.5664 79.3632 14.5664C80.2275 14.5664 80.6589 14.2891 80.6589 13.7329C80.6589 13.1767 80.3677 12.9364 79.7869 12.9364H78.3464C76.7287 12.9364 75.9214 12.1399 75.9214 10.5484C75.9214 8.95685 77.1015 8.04785 79.4603 8.04785C80.4602 8.04785 81.4031 8.19884 82.2874 8.50235V10.1693C81.4031 9.81499 80.4432 9.63936 79.4079 9.63936C78.3726 9.63936 77.7779 9.91668 77.7779 10.4729C77.7779 11.029 78.0937 11.2694 78.7254 11.2694H80.0134C81.7821 11.2694 82.6664 12.0659 82.6664 13.6574C82.6664 15.2489 81.5402 16.1579 79.2862 16.1579C78.18 16.1579 77.1847 16.0069 76.3004 15.7034H76.3019Z" fill="white"/>
<path d="M87.118 8.12593C89.5338 8.12593 90.7401 9.35846 90.7401 11.8251C90.7401 12.1532 90.717 12.4814 90.6723 12.8096H85.3894C85.3894 13.9312 86.2121 14.492 87.8606 14.492C88.6633 14.492 89.4675 14.4165 90.2702 14.2639V15.8555C89.5677 16.0064 88.7142 16.0835 87.7081 16.0835C84.8224 16.0835 83.3804 14.7261 83.3804 12.013C83.3804 9.29992 84.6252 8.12439 87.1165 8.12439L87.118 8.12593ZM85.3909 11.4153H88.7866V11.3552C88.7866 10.2536 88.2304 9.70357 87.1196 9.70357C86.0087 9.70357 85.4834 10.2752 85.3925 11.4168L85.3909 11.4153Z" fill="white"/>
<path d="M92.1261 16.085V5.24792H96.9761C99.1885 5.24792 100.296 6.26631 100.296 8.30152C100.296 10.5093 98.7833 11.8451 95.7559 12.3103L95.4678 10.5216C97.2873 10.1935 98.1963 9.47397 98.1963 8.36161C98.1963 7.46186 97.7464 7.01199 96.8467 7.01199H94.1335V16.0834H92.1245L92.1261 16.085Z" fill="white"/>
<path d="M100.745 13.6061C100.745 12.0254 101.897 11.2335 104.2 11.2335C104.741 11.2335 105.282 11.2843 105.823 11.3844V10.7851C105.823 10.0733 105.31 9.7159 104.284 9.7159C103.415 9.7159 102.45 9.84223 101.389 10.0949V8.50339C102.45 8.25073 103.415 8.12439 104.284 8.12439C106.649 8.12439 107.83 8.99795 107.83 10.7466V16.0819H106.662L105.951 15.3701C105.259 15.8447 104.495 16.0819 103.661 16.0819C101.715 16.0819 100.743 15.2561 100.743 13.603L100.745 13.6061ZM104.2 12.5985C103.236 12.5985 102.752 12.9266 102.752 13.583C102.752 14.2901 103.156 14.6445 103.965 14.6445C104.632 14.6445 105.251 14.438 105.821 14.0236V12.751C105.316 12.6493 104.775 12.6 104.199 12.6L104.2 12.5985Z" fill="white"/>
<path d="M111.111 5.245V16.082H109.102V5.245H111.111Z" fill="white"/>
<path d="M30.6831 22.0875H31.1122L31.3562 23.725L31.9489 22.0875H32.355L32.9104 23.6619L33.1687 22.0875H33.5849L33.1558 24.3679H32.754L32.1268 22.5783L31.4537 24.3679H31.0562L30.6816 22.0875H30.6831Z" fill="#9FA2B8"/>
<path d="M34.7827 23.2295C34.7827 22.456 35.1645 22.0699 35.928 22.0699C36.6914 22.0699 37.056 22.456 37.056 23.2295C37.056 24.0031 36.68 24.3834 35.928 24.3834C35.1759 24.3834 34.8172 23.9988 34.7827 23.2295ZM35.928 24.016C36.3872 24.016 36.6168 23.7505 36.6168 23.2195C36.6168 22.6885 36.3872 22.4359 35.928 22.4359C35.4687 22.4359 35.2219 22.6971 35.2219 23.2195C35.2219 23.7419 35.4572 24.016 35.928 24.016Z" fill="#9FA2B8"/>
<path d="M38.4321 24.3651V22.0875H39.4683C39.9347 22.0875 40.1672 22.2913 40.1672 22.6989C40.1672 22.9744 39.9864 23.2026 39.6233 23.3834L40.3452 24.3694H39.8127L39.1196 23.3763V23.184C39.5243 23.1151 39.7252 22.9586 39.7252 22.7132C39.7252 22.5453 39.6305 22.4607 39.441 22.4607H38.8627V24.3665H38.4321V24.3651Z" fill="#9FA2B8"/>
<path d="M41.9468 22.0875V24.3679H41.5249V22.0875H41.9468ZM43.5513 22.0875L42.5783 23.151L43.6532 24.3679H43.0677L42.1851 23.3031V23.029L43.0332 22.0875H43.5499H43.5513Z" fill="#9FA2B8"/>
<path d="M46.4515 24.2729V23.8897C46.6796 23.9744 46.938 24.0174 47.2264 24.0174C47.5766 24.0174 47.7517 23.8997 47.7517 23.6658C47.7517 23.495 47.6441 23.4104 47.4288 23.4104H47.0714C46.605 23.4104 46.3711 23.198 46.3711 22.7717C46.3711 22.3039 46.7026 22.0699 47.3685 22.0699C47.624 22.0699 47.8651 22.1073 48.0947 22.1819V22.5651C47.8665 22.4804 47.624 22.4373 47.3685 22.4373C46.9853 22.4373 46.7945 22.5493 46.7945 22.7717C46.7945 22.9425 46.8863 23.0272 47.0714 23.0272H47.4288C47.9253 23.0272 48.1736 23.2396 48.1736 23.6658C48.1736 24.1437 47.8579 24.3834 47.2264 24.3834C46.938 24.3834 46.6796 24.3461 46.4515 24.2714V24.2729Z" fill="#9FA2B8"/>
<path d="M49.5122 24.3679V22.0875H49.9514L50.7249 23.8183L51.4826 22.0875H51.9046V24.3679H51.5142V22.7793L50.8957 24.3679H50.5355L49.904 22.7793V24.3679H49.5136H49.5122Z" fill="#9FA2B8"/>
<path d="M53.5994 24.3679H53.166L54.1347 22.0875H54.5897L55.5785 24.3679H55.1235L54.8638 23.7465H54.106L54.251 23.3791H54.7102L54.3514 22.5224L53.6009 24.3679H53.5994Z" fill="#9FA2B8"/>
<path d="M56.8345 24.3651V22.0875H57.8706C58.3371 22.0875 58.5696 22.2913 58.5696 22.6989C58.5696 22.9744 58.3887 23.2026 58.0256 23.3834L58.7475 24.3694H58.2151L57.5219 23.3763V23.184C57.9266 23.1151 58.1275 22.9586 58.1275 22.7132C58.1275 22.5453 58.0328 22.4607 57.8434 22.4607H57.265V24.3665H56.8345V24.3651Z" fill="#9FA2B8"/>
<path d="M61.4183 22.0875V22.4549H60.7639V24.3679H60.3419V22.4549H59.6875V22.0875H61.4183Z" fill="#9FA2B8"/>
<path d="M63.1001 24.069L62.8604 24.7621H62.4385L62.6781 24.069H63.1001Z" fill="#9FA2B8"/>
<path d="M65.8745 22.0875H66.3036L66.5476 23.725L67.1403 22.0875H67.5464L68.1018 23.6619L68.3601 22.0875H68.7763L68.3472 24.3679H67.9454L67.3182 22.5783L66.6451 24.3679H66.2476L65.873 22.0875H65.8745Z" fill="#9FA2B8"/>
<path d="M69.9727 23.2295C69.9727 22.456 70.3544 22.0699 71.1179 22.0699C71.8814 22.0699 72.2459 22.456 72.2459 23.2295C72.2459 24.0031 71.8699 24.3834 71.1179 24.3834C70.3659 24.3834 70.0071 23.9988 69.9727 23.2295ZM71.1179 24.016C71.5771 24.016 71.8068 23.7505 71.8068 23.2195C71.8068 22.6885 71.5771 22.4359 71.1179 22.4359C70.6587 22.4359 70.4118 22.6971 70.4118 23.2195C70.4118 23.7419 70.6472 24.016 71.1179 24.016Z" fill="#9FA2B8"/>
<path d="M73.6221 24.3651V22.0875H74.6582C75.1232 22.0875 75.3571 22.2913 75.3571 22.6989C75.3571 22.9744 75.1763 23.2026 74.8132 23.3834L75.5351 24.3694H75.0027L74.3095 23.3763V23.184C74.7128 23.1151 74.9151 22.9586 74.9151 22.7132C74.9151 22.5453 74.8204 22.4607 74.631 22.4607H74.0526V24.3665H73.6221V24.3651Z" fill="#9FA2B8"/>
<path d="M77.1397 22.0875V24.3679H76.7163V22.0875H77.1397ZM78.7442 22.0875L77.7711 23.151L78.846 24.3679H78.2605L77.3779 23.3031V23.029L78.2261 22.0875H78.7427H78.7442Z" fill="#9FA2B8"/>
<path d="M83.2445 22.0875V22.4506H82.1022V23.0247H83.19V23.4021H82.0979V24.0006H83.2675V24.3679H81.6831V22.0875H83.2445Z" fill="#9FA2B8"/>
<path d="M86.133 22.0831V22.4462H85.0553V23.0202H86.0785V23.3977H85.0495V24.3621H84.6348V22.0817H86.1316L86.133 22.0831Z" fill="#9FA2B8"/>
<path d="M88.9695 22.0831V22.4462H87.8917V23.0202H88.9149V23.3977H87.8859V24.3621H87.4712V22.0817H88.968L88.9695 22.0831Z" fill="#9FA2B8"/>
<path d="M90.73 22.0875V24.3679H90.3066V22.0875H90.73Z" fill="#9FA2B8"/>
<path d="M94.0071 24.27C93.8105 24.3446 93.5866 24.3819 93.3369 24.3819C92.5188 24.3819 92.1084 23.9858 92.1084 23.1937C92.1084 22.4445 92.5174 22.0699 93.3369 22.0699C93.5866 22.0699 93.8105 22.1073 94.0071 22.1819V22.5651C93.8105 22.4804 93.5981 22.4373 93.3684 22.4373C92.8202 22.4373 92.5475 22.6899 92.5475 23.1951C92.5475 23.7433 92.8217 24.016 93.3684 24.016C93.5966 24.016 93.809 23.9729 94.0071 23.8883V24.2714V24.27Z" fill="#9FA2B8"/>
<path d="M95.8086 22.0875V24.3679H95.3853V22.0875H95.8086Z" fill="#9FA2B8"/>
<path d="M98.828 22.0875V22.4506H97.6857V23.0247H98.7735V23.4021H97.6814V24.0006H98.851V24.3679H97.2666V22.0875H98.828Z" fill="#9FA2B8"/>
<path d="M100.224 24.3679V22.0875H100.647L101.851 23.7494V22.0875H102.257V24.3679H101.834L100.63 22.6716V24.3679H100.224Z" fill="#9FA2B8"/>
<path d="M105.205 22.0875V22.4549H104.55V24.3679H104.129V22.4549H103.474V22.0875H105.205Z" fill="#9FA2B8"/>
<rect x="116.389" y="3.61115" width="33.3332" height="22" rx="5.27775" fill="white"/>
<rect x="116.389" y="3.61115" width="33.3332" height="22" rx="5.27775" stroke="url(#paint0_linear_733_9863)" stroke-width="0.555553"/>
<path d="M130.154 13.0111C130.154 13.4528 130.05 13.8694 129.841 14.2611C129.633 14.6528 129.3 14.9736 128.841 15.2236C128.383 15.4653 127.796 15.5861 127.079 15.5861H125.504V19.1111H124.079V10.4236H127.079C127.746 10.4236 128.308 10.5403 128.766 10.7736C129.233 10.9986 129.579 11.307 129.804 11.6986C130.037 12.0903 130.154 12.5278 130.154 13.0111ZM127.079 14.4236C127.621 14.4236 128.025 14.3028 128.291 14.0611C128.558 13.8111 128.691 13.4611 128.691 13.0111C128.691 12.0611 128.154 11.5861 127.079 11.5861H125.504V14.4236H127.079ZM132.75 13.2236C132.959 12.8736 133.234 12.6028 133.575 12.4111C133.925 12.2111 134.338 12.1111 134.813 12.1111V13.5861H134.45C133.892 13.5861 133.467 13.7278 133.175 14.0111C132.892 14.2944 132.75 14.7861 132.75 15.4861V19.1111H131.325V12.2236H132.75V13.2236ZM138.923 19.2236C138.273 19.2236 137.685 19.0778 137.16 18.7861C136.635 18.4861 136.223 18.0694 135.923 17.5361C135.623 16.9944 135.473 16.3694 135.473 15.6611C135.473 14.9611 135.627 14.3403 135.935 13.7986C136.244 13.2569 136.664 12.8403 137.198 12.5486C137.731 12.257 138.327 12.1111 138.985 12.1111C139.644 12.1111 140.239 12.257 140.773 12.5486C141.306 12.8403 141.727 13.2569 142.035 13.7986C142.344 14.3403 142.498 14.9611 142.498 15.6611C142.498 16.3611 142.339 16.9819 142.023 17.5236C141.706 18.0653 141.273 18.4861 140.723 18.7861C140.181 19.0778 139.581 19.2236 138.923 19.2236ZM138.923 17.9861C139.289 17.9861 139.631 17.8986 139.948 17.7236C140.273 17.5486 140.535 17.2861 140.735 16.9361C140.935 16.5861 141.035 16.1611 141.035 15.6611C141.035 15.1611 140.939 14.7403 140.748 14.3986C140.556 14.0486 140.302 13.7861 139.985 13.6111C139.669 13.4361 139.327 13.3486 138.96 13.3486C138.594 13.3486 138.252 13.4361 137.935 13.6111C137.627 13.7861 137.381 14.0486 137.198 14.3986C137.014 14.7403 136.923 15.1611 136.923 15.6611C136.923 16.4028 137.11 16.9778 137.485 17.3861C137.869 17.7861 138.348 17.9861 138.923 17.9861Z" fill="#232744"/>
<defs>
<linearGradient id="paint0_linear_733_9863" x1="133.055" y1="25.8889" x2="132.769" y2="9.53629" gradientUnits="userSpaceOnUse">
<stop offset="0.342328" stop-color="#131734"/>
<stop offset="1" stop-color="#232744"/>
</linearGradient>
</defs>
</svg>
