<svg width="270" height="55" viewBox="0 0 270 55" fill="none" xmlns="http://www.w3.org/2000/svg">
<path d="M42.3502 16.2619C40.1269 13.3733 37.0082 11.4701 33.5419 10.8198C34.3347 11.6426 35.0349 12.558 35.6227 13.5559C39.169 14.9764 41.6299 17.7199 42.7954 21.6114C44.1834 26.2456 43.0955 30.4572 39.5591 34.1261C37.0632 36.7171 23.5881 50.8499 23.5881 50.8499V37.5124C23.5881 36.8721 22.9654 36.3719 22.2926 36.5895C21.8874 36.7196 21.6399 37.1322 21.6399 37.5574V44.2199C21.6399 44.9577 21.6374 45.6954 21.6323 46.4332C21.6223 48.5065 21.6098 50.6498 21.6899 52.7481C21.7024 53.0882 21.7299 54.0261 22.4827 54.0111C22.7128 53.9936 23.1179 53.826 23.253 53.691C24.5134 52.4105 36.7556 40.0133 41.4824 34.9789C46.3442 29.802 46.7069 21.9315 42.3502 16.2694V16.2619Z" fill="#1F30BC"/>
<path d="M5.77998 13.5935C4.73208 14.3763 3.81424 15.2741 3.05145 16.262C-1.18266 21.7665 -0.99759 29.2619 3.52662 34.5163C3.76171 34.829 4.03932 35.1366 4.37695 35.4542C5.42984 36.5696 6.48775 37.6825 7.54815 38.783C7.86077 39.1056 8.17839 39.4207 8.49601 39.7283C9.40635 40.6011 9.88153 41.4515 9.43136 42.977C9.09123 44.135 9.28631 45.4079 9.96407 46.4658C10.6568 47.5438 11.7422 48.2615 12.9452 48.4366C13.1953 48.4741 13.4479 48.4916 13.6955 48.4916C16.1889 48.4916 18.1322 46.6534 18.2147 44.2125C18.2572 42.9245 17.7945 41.679 16.9392 40.7962C16.1889 40.0184 15.1986 39.5908 14.1532 39.5908C13.9531 39.5908 13.7455 39.6058 13.5429 39.6383C13.2553 39.6833 12.9777 39.7033 12.7151 39.7033C11.0645 39.7033 10.0766 38.798 9.27631 37.9501L9.04872 37.7125L8.76111 37.3774C8.29093 36.8772 7.82825 36.347 7.37808 35.8318C6.87539 35.2566 6.3577 34.6614 5.84 34.1262C2.30616 30.4573 1.21825 26.2457 2.60377 21.6115C3.62166 18.2152 5.62992 15.5867 8.59354 13.791C9.07123 13.5284 9.56892 13.3134 10.0791 13.1358C10.5843 12.3205 11.1645 11.5702 11.8123 10.8875C9.60893 11.3101 7.53064 12.233 5.77498 13.596L5.77998 13.5935ZM13.663 41.4565C13.703 41.4565 13.743 41.454 13.7805 41.454C14.4258 41.454 15.081 41.7591 15.5712 42.2893C16.0739 42.832 16.334 43.5222 16.284 44.1825C16.1814 45.5305 14.9635 46.5884 13.5104 46.5884H13.3904L13.3528 46.5784C11.9373 46.3308 11.1145 45.3579 11.1495 43.9724C11.187 42.4868 12.1249 41.5465 13.6605 41.459L13.663 41.4565Z" fill="#1F30BC"/>
<path d="M33.5537 14.4061C33.1636 13.7834 32.7159 13.2007 32.2282 12.6605C31.5179 11.8752 30.7126 11.1824 29.8348 10.6022C27.8741 9.3017 25.5632 8.54892 23.1673 8.51891C20.2987 8.48139 17.6627 9.23918 15.5144 10.6572C14.6841 11.2049 13.9263 11.8502 13.256 12.5879C12.9559 12.9181 12.6708 13.2657 12.4082 13.6308C11.2403 15.5015 10.5625 17.7124 10.5625 20.0808C10.5625 25.973 14.7416 30.8898 20.2987 32.0278C20.3012 32.0228 20.3062 32.0178 20.3087 32.0102C15.4994 30.3121 12.5658 27.1484 12.3307 21.6063C13.8512 21.6063 15.1742 21.4538 16.4522 21.6338C21.3916 22.3266 25.4707 21.2287 28.1117 16.5869C28.3517 16.1668 29.2821 16.1393 29.8923 15.9292C29.9649 16.5694 30.23 17.2672 30.0649 17.8399C29.7148 19.0654 29.1395 20.2283 28.6143 21.5213C30.2775 21.5963 31.673 21.6564 33.051 21.7189C33.1686 26.3581 30.6501 29.5943 25.148 32.0153C25.1505 32.0228 25.1555 32.0278 25.1605 32.0353C30.7477 30.9198 34.9567 25.9905 34.9567 20.0758C34.9567 18.0275 34.4491 16.0968 33.5562 14.4036L33.5537 14.4061Z" fill="#FFB417"/>
<path d="M23.1953 6.31839C25.9113 6.3534 28.5023 7.15621 30.7231 8.54173C31.3734 6.50096 31.9761 4.61275 32.6514 2.49445C26.314 -0.64423 20.1141 -0.844305 13.8567 2.02678C13.4791 2.19934 13.0539 3.00464 13.1615 3.36478C13.6542 5.03041 14.3194 6.64602 14.9697 8.39417C17.273 7.05367 20.0016 6.31589 22.9652 6.31589H23.1953V6.31839ZM20.9244 3.73242V2.49195H22.0748V1.34152H23.3153V2.49195H24.4657V3.73242H23.3153V4.88285H22.0748V3.73242H20.9244Z" fill="#1F30BC"/>
<path d="M30.7036 8.60873C30.7111 8.58623 30.7186 8.56372 30.7261 8.54121C28.5053 7.15569 25.9143 6.35288 23.1983 6.31787H22.9682C20.0046 6.31787 17.2735 7.05315 14.9727 8.39365C14.9802 8.41616 14.9902 8.43867 14.9977 8.46118C20.3097 5.55758 25.4491 5.62761 30.7061 8.61123L30.7036 8.60873Z" fill="#1F30BC"/>
<path d="M55.2266 28.9477V9.44092H58.9787L65.5956 24.2415L72.0766 9.44092H75.6929V28.9477H72.3511V15.359L67.0571 28.9477H63.9733L58.5711 15.359V28.9477H55.2266Z" fill="#1F30BC"/>
<path d="M77.1758 14.6218H81.0084L84.6246 24.9354L88.1577 14.6218H91.9237L85.9752 29.3698C84.9214 31.971 83.2325 33.8208 80.9141 34.9217L79.1669 32.4536C80.7671 31.752 81.9318 30.6122 82.6584 29.0287L77.1758 14.6218Z" fill="#1F30BC"/>
<path d="M93.9727 28.9477V9.44092H97.5889L107.889 23.6564V9.44092H111.366V28.9477H107.75L97.4503 14.4327V28.9477H93.9727Z" fill="#1F30BC"/>
<path d="M126.327 14.6218V28.9455H123.504L123.069 27.1179C121.422 28.3381 119.677 28.9455 117.83 28.9455C114.902 28.9455 113.438 27.2122 113.438 23.7485V14.6218H117.054V23.6542C117.054 25.2377 117.744 26.028 119.128 26.028C120.301 26.028 121.496 25.5594 122.717 24.622V14.6218H126.333H126.327Z" fill="#1F30BC"/>
<path d="M128.623 28.9479V14.6243H131.418L131.867 16.4518C133.124 15.2344 134.449 14.6243 135.85 14.6243V17.5445C134.505 17.5445 133.298 18.1046 132.233 19.2222V28.9479H128.617H128.623Z" fill="#1F30BC"/>
<path d="M137.341 28.2657V25.2651C138.933 25.9029 140.769 26.2191 142.852 26.2191C144.407 26.2191 145.184 25.7199 145.184 24.7187C145.184 23.7176 144.66 23.285 143.614 23.285H141.021C138.109 23.285 136.656 21.8512 136.656 18.9865C136.656 16.1218 138.781 14.4856 143.026 14.4856C144.826 14.4856 146.523 14.7574 148.115 15.3037V18.3043C146.523 17.6665 144.796 17.3503 142.932 17.3503C141.068 17.3503 139.998 17.8495 139.998 18.8506C139.998 19.8518 140.566 20.2844 141.703 20.2844H144.022C147.206 20.2844 148.797 21.7181 148.797 24.5829C148.797 27.4476 146.77 29.0838 142.713 29.0838C140.722 29.0838 138.93 28.812 137.338 28.2657H137.341Z" fill="#1F30BC"/>
<path d="M156.81 14.6212C161.158 14.6212 163.33 16.8398 163.33 21.2797C163.33 21.8704 163.288 22.4611 163.208 23.0517H153.698C153.698 25.0706 155.179 26.0801 158.147 26.0801C159.591 26.0801 161.039 25.9442 162.484 25.6697V28.5344C161.219 28.8062 159.683 28.9448 157.872 28.9448C152.678 28.9448 150.082 26.5016 150.082 21.618C150.082 16.7344 152.323 14.6184 156.807 14.6184L156.81 14.6212ZM153.701 20.542H159.813V20.4338C159.813 18.451 158.812 17.461 156.813 17.461C154.813 17.461 153.867 18.4898 153.704 20.5448L153.701 20.542Z" fill="#1F30BC"/>
<path d="M165.827 28.9477V9.44092H174.557C178.539 9.44092 180.533 11.274 180.533 14.9374C180.533 18.9114 177.81 21.3158 172.361 22.1533L171.842 18.9336C175.117 18.3429 176.753 17.0478 176.753 15.0456C176.753 13.426 175.944 12.6162 174.324 12.6162H169.44V28.9449H165.824L165.827 28.9477Z" fill="#1F30BC"/>
<path d="M181.339 24.4855C181.339 21.6402 183.413 20.2148 187.559 20.2148C188.532 20.2148 189.506 20.3063 190.479 20.4865V19.4077C190.479 18.1265 189.556 17.4831 187.709 17.4831C186.145 17.4831 184.409 17.7105 182.498 18.1653V15.3006C184.409 14.8458 186.145 14.6184 187.709 14.6184C191.966 14.6184 194.093 16.1908 194.093 19.3384V28.942H191.991L190.709 27.6608C189.464 28.515 188.089 28.942 186.588 28.942C183.086 28.942 181.336 27.4556 181.336 24.48L181.339 24.4855ZM187.559 22.6718C185.823 22.6718 184.952 23.2625 184.952 24.4439C184.952 25.7168 185.679 26.3546 187.135 26.3546C188.336 26.3546 189.45 25.983 190.476 25.237V22.9464C189.567 22.7633 188.593 22.6746 187.556 22.6746L187.559 22.6718Z" fill="#1F30BC"/>
<path d="M199.999 9.43872V28.9455H196.383V9.43872H199.999Z" fill="#1F30BC"/>
<path d="M55.2291 39.7495H56.0015L56.4407 42.697L57.5076 39.7495H58.2386L59.2384 42.5833L59.7033 39.7495H60.4525L59.6801 43.8543H58.9568L57.8279 40.633L56.6164 43.8543H55.9008L55.2266 39.7495H55.2291Z" fill="#424664"/>
<path d="M62.6055 41.8082C62.6055 40.4158 63.2926 39.7209 64.6669 39.7209C66.0412 39.7209 66.6973 40.4158 66.6973 41.8082C66.6973 43.2006 66.0205 43.8851 64.6669 43.8851C63.3133 43.8851 62.6675 43.1928 62.6055 41.8082ZM64.6669 43.2238C65.4936 43.2238 65.9069 42.7459 65.9069 41.7901C65.9069 40.8343 65.4936 40.3797 64.6669 40.3797C63.8403 40.3797 63.3959 40.8498 63.3959 41.7901C63.3959 42.7304 63.8196 43.2238 64.6669 43.2238Z" fill="#424664"/>
<path d="M69.1797 43.8491V39.7495H71.0448C71.8844 39.7495 72.3028 40.1163 72.3028 40.85C72.3028 41.346 71.9774 41.7567 71.3238 42.0822L72.6232 43.8569H71.6648L70.4171 42.0693V41.7231C71.1455 41.5991 71.5072 41.3175 71.5072 40.8758C71.5072 40.5736 71.3367 40.4212 70.9957 40.4212H69.9547V43.8517H69.1797V43.8491Z" fill="#424664"/>
<path d="M75.5056 39.7495V43.8543H74.7461V39.7495H75.5056ZM78.3937 39.7495L76.6422 41.6637L78.5771 43.8543H77.5231L75.9344 41.9375V41.4441L77.4611 39.7495H78.3911H78.3937Z" fill="#424664"/>
<path d="M83.6134 43.6838V42.9941C84.0241 43.1465 84.4891 43.224 85.0084 43.224C85.6387 43.224 85.9538 43.0121 85.9538 42.5911C85.9538 42.2837 85.7601 42.1313 85.3726 42.1313H84.7294C83.8898 42.1313 83.4688 41.7489 83.4688 40.9817C83.4688 40.1396 84.0655 39.7185 85.2641 39.7185C85.7239 39.7185 86.1579 39.7857 86.5712 39.92V40.6097C86.1605 40.4573 85.7239 40.3798 85.2641 40.3798C84.5744 40.3798 84.2308 40.5813 84.2308 40.9817C84.2308 41.2891 84.3961 41.4415 84.7294 41.4415H85.3726C86.2664 41.4415 86.7133 41.8238 86.7133 42.5911C86.7133 43.4513 86.145 43.8827 85.0084 43.8827C84.4891 43.8827 84.0241 43.8155 83.6134 43.6812V43.6838Z" fill="#424664"/>
<path d="M89.1211 43.8543V39.7495H89.9116L91.3039 42.8649L92.6679 39.7495H93.4274V43.8543H92.7247V40.9946L91.6114 43.8543H90.963L89.8263 40.9946V43.8543H89.1237H89.1211Z" fill="#424664"/>
<path d="M96.4755 43.8543H95.6953L97.439 39.7495H98.2579L100.038 43.8543H99.2189L98.7513 42.7357H97.3873L97.6483 42.0744H98.4749L97.8291 40.5322L96.478 43.8543H96.4755Z" fill="#424664"/>
<path d="M102.301 43.8491V39.7495H104.166C105.005 39.7495 105.424 40.1163 105.424 40.85C105.424 41.346 105.098 41.7567 104.445 42.0822L105.744 43.8569H104.786L103.538 42.0693V41.7231C104.267 41.5991 104.628 41.3175 104.628 40.8758C104.628 40.5736 104.458 40.4212 104.117 40.4212H103.076V43.8517H102.301V43.8491Z" fill="#424664"/>
<path d="M110.553 39.7495V40.4108H109.375V43.8543H108.615V40.4108H107.438V39.7495H110.553Z" fill="#424664"/>
<path d="M113.578 43.3247L113.146 44.5724H112.387L112.818 43.3247H113.578Z" fill="#424664"/>
<path d="M118.569 39.7495H119.341L119.781 42.697L120.847 39.7495H121.578L122.578 42.5833L123.043 39.7495H123.792L123.02 43.8543H122.297L121.168 40.633L119.956 43.8543H119.241L118.566 39.7495H118.569Z" fill="#424664"/>
<path d="M125.949 41.8082C125.949 40.4158 126.636 39.7209 128.011 39.7209C129.385 39.7209 130.041 40.4158 130.041 41.8082C130.041 43.2006 129.364 43.8851 128.011 43.8851C126.657 43.8851 126.011 43.1928 125.949 41.8082ZM128.011 43.2238C128.837 43.2238 129.251 42.7459 129.251 41.7901C129.251 40.8343 128.837 40.3797 128.011 40.3797C127.184 40.3797 126.74 40.8498 126.74 41.7901C126.74 42.7304 127.163 43.2238 128.011 43.2238Z" fill="#424664"/>
<path d="M132.52 43.8491V39.7495H134.385C135.222 39.7495 135.643 40.1163 135.643 40.85C135.643 41.346 135.317 41.7567 134.664 42.0822L135.963 43.8569H135.005L133.757 42.0693V41.7231C134.483 41.5991 134.847 41.3175 134.847 40.8758C134.847 40.5736 134.677 40.4212 134.336 40.4212H133.295V43.8517H132.52V43.8491Z" fill="#424664"/>
<path d="M138.852 39.7495V43.8543H138.09V39.7495H138.852ZM141.74 39.7495L139.989 41.6637L141.923 43.8543H140.869L139.281 41.9375V41.4441L140.807 39.7495H141.737H141.74Z" fill="#424664"/>
<path d="M149.834 39.7495V40.4031H147.778V41.4364H149.736V42.1158H147.77V43.193H149.875V43.8543H147.023V39.7495H149.834Z" fill="#424664"/>
<path d="M155.037 39.7497V40.4032H153.097V41.4365H154.939V42.1159H153.086V43.8518H152.34V39.7471H155.034L155.037 39.7497Z" fill="#424664"/>
<path d="M160.146 39.7497V40.4032H158.206V41.4365H160.048V42.1159H158.196V43.8518H157.449V39.7471H160.144L160.146 39.7497Z" fill="#424664"/>
<path d="M163.317 39.7495V43.8543H162.555V39.7495H163.317Z" fill="#424664"/>
<path d="M169.215 43.6835C168.861 43.8178 168.458 43.885 168.008 43.885C166.536 43.885 165.797 43.172 165.797 41.7461C165.797 40.3976 166.533 39.7234 168.008 39.7234C168.458 39.7234 168.861 39.7906 169.215 39.9249V40.6146C168.861 40.4622 168.478 40.3847 168.065 40.3847C167.078 40.3847 166.587 40.8393 166.587 41.7486C166.587 42.7354 167.081 43.2263 168.065 43.2263C168.476 43.2263 168.858 43.1488 169.215 42.9964V43.6861V43.6835Z" fill="#424664"/>
<path d="M172.457 39.7495V43.8543H171.695V39.7495H172.457Z" fill="#424664"/>
<path d="M177.889 39.7495V40.4031H175.832V41.4364H177.791V42.1158H175.825V43.193H177.93V43.8543H175.078V39.7495H177.889Z" fill="#424664"/>
<path d="M180.398 43.8543V39.7495H181.161L183.328 42.7409V39.7495H184.059V43.8543H183.297L181.13 40.8009V43.8543H180.398Z" fill="#424664"/>
<path d="M189.369 39.7495V40.4108H188.191V43.8543H187.432V40.4108H186.254V39.7495H189.369Z" fill="#424664"/>
<rect x="209.5" y="6.50024" width="60" height="39" rx="9.5" fill="#1F30BC"/>
<rect x="209.5" y="6.50024" width="60" height="39" rx="9.5" stroke="url(#paint0_linear_521_7853)"/>
<path d="M234.278 23.0202C234.278 23.8152 234.09 24.5652 233.715 25.2702C233.34 25.9752 232.74 26.5527 231.915 27.0027C231.09 27.4377 230.033 27.6552 228.743 27.6552H225.908V34.0002H223.343V18.3627H228.743C229.943 18.3627 230.955 18.5727 231.78 18.9927C232.62 19.3977 233.243 19.9527 233.648 20.6577C234.068 21.3627 234.278 22.1502 234.278 23.0202ZM228.743 25.5627C229.718 25.5627 230.445 25.3452 230.925 24.9102C231.405 24.4602 231.645 23.8302 231.645 23.0202C231.645 21.3102 230.678 20.4552 228.743 20.4552H225.908V25.5627H228.743ZM238.951 23.4027C239.326 22.7727 239.821 22.2852 240.436 21.9402C241.066 21.5802 241.809 21.4002 242.664 21.4002V24.0552H242.011C241.006 24.0552 240.241 24.3102 239.716 24.8202C239.206 25.3302 238.951 26.2152 238.951 27.4752V34.0002H236.386V21.6027H238.951V23.4027ZM250.062 34.2027C248.892 34.2027 247.834 33.9402 246.889 33.4152C245.944 32.8752 245.202 32.1252 244.662 31.1652C244.122 30.1902 243.852 29.0652 243.852 27.7902C243.852 26.5302 244.129 25.4127 244.684 24.4377C245.239 23.4627 245.997 22.7127 246.957 22.1877C247.917 21.6627 248.989 21.4002 250.174 21.4002C251.359 21.4002 252.432 21.6627 253.392 22.1877C254.352 22.7127 255.109 23.4627 255.664 24.4377C256.219 25.4127 256.497 26.5302 256.497 27.7902C256.497 29.0502 256.212 30.1677 255.642 31.1427C255.072 32.1177 254.292 32.8752 253.302 33.4152C252.327 33.9402 251.247 34.2027 250.062 34.2027ZM250.062 31.9752C250.722 31.9752 251.337 31.8177 251.907 31.5027C252.492 31.1877 252.964 30.7152 253.324 30.0852C253.684 29.4552 253.864 28.6902 253.864 27.7902C253.864 26.8902 253.692 26.1327 253.347 25.5177C253.002 24.8877 252.544 24.4152 251.974 24.1002C251.404 23.7852 250.789 23.6277 250.129 23.6277C249.469 23.6277 248.854 23.7852 248.284 24.1002C247.729 24.4152 247.287 24.8877 246.957 25.5177C246.627 26.1327 246.462 26.8902 246.462 27.7902C246.462 29.1252 246.799 30.1602 247.474 30.8952C248.164 31.6152 249.027 31.9752 250.062 31.9752Z" fill="white"/>
<defs>
<linearGradient id="paint0_linear_521_7853" x1="239.5" y1="46.0002" x2="239" y2="17.0002" gradientUnits="userSpaceOnUse">
<stop offset="0.342328" stop-color="white"/>
<stop offset="1" stop-color="#1F30BC"/>
</linearGradient>
</defs>
</svg>
